<mxfile host="app.diagrams.net" agent="Mozilla/5.0 (Windows NT 10.0; Win64; x64) AppleWebKit/537.36 (KHTML, like Gecko) Chrome/133.0.0.0 Safari/537.36" version="26.0.16">
  <diagram id="C5RBs43oDa-KdzZeNtuy" name="Page-1">
    <mxGraphModel dx="1034" dy="3927" grid="1" gridSize="10" guides="1" tooltips="1" connect="1" arrows="1" fold="1" page="1" pageScale="1" pageWidth="827" pageHeight="1169" math="0" shadow="0">
      <root>
        <mxCell id="WIyWlLk6GJQsqaUBKTNV-0" />
        <mxCell id="WIyWlLk6GJQsqaUBKTNV-1" parent="WIyWlLk6GJQsqaUBKTNV-0" />
        <mxCell id="abGJAD1XLBtD331P0YCd-26" value="&lt;p style=&quot;margin: 0px ; margin-top: 4px ; text-align: center&quot;&gt;&lt;i&gt;&amp;lt;&amp;lt;Interface&amp;gt;&amp;gt;&lt;/i&gt;&lt;br&gt;&lt;b&gt;BankAccount&lt;/b&gt;&lt;/p&gt;&lt;hr size=&quot;1&quot;&gt;&lt;p style=&quot;margin: 0px ; margin-left: 4px&quot;&gt;+ getBalance()&lt;br&gt;&lt;/p&gt;&lt;p style=&quot;margin: 0px ; margin-left: 4px&quot;&gt;+ deposit(amount: int)&lt;/p&gt;&lt;p style=&quot;margin: 0px ; margin-left: 4px&quot;&gt;+ withdraw(amount: int)&lt;/p&gt;" style="verticalAlign=top;align=left;overflow=fill;fontSize=12;fontFamily=Helvetica;html=1;" vertex="1" parent="WIyWlLk6GJQsqaUBKTNV-1">
          <mxGeometry x="250" y="-3480" width="141" height="100" as="geometry" />
        </mxCell>
        <mxCell id="abGJAD1XLBtD331P0YCd-28" value="&lt;p style=&quot;margin: 0px ; margin-top: 4px ; text-align: center&quot;&gt;&lt;b&gt;&lt;br&gt;&lt;/b&gt;&lt;/p&gt;&lt;p style=&quot;margin: 0px ; margin-top: 4px ; text-align: center&quot;&gt;&lt;b&gt;DecoratorBankAccount&lt;/b&gt;&lt;/p&gt;" style="verticalAlign=top;align=left;overflow=fill;fontSize=12;fontFamily=Helvetica;html=1;" vertex="1" parent="WIyWlLk6GJQsqaUBKTNV-1">
          <mxGeometry x="140" y="-3300" width="160" height="60" as="geometry" />
        </mxCell>
        <mxCell id="abGJAD1XLBtD331P0YCd-29" value="" style="endArrow=block;dashed=1;endFill=0;endSize=12;html=1;rounded=0;entryX=0.25;entryY=1;entryDx=0;entryDy=0;exitX=0.5;exitY=0;exitDx=0;exitDy=0;" edge="1" parent="WIyWlLk6GJQsqaUBKTNV-1" source="abGJAD1XLBtD331P0YCd-28" target="abGJAD1XLBtD331P0YCd-26">
          <mxGeometry width="160" relative="1" as="geometry">
            <mxPoint x="111" y="-3290" as="sourcePoint" />
            <mxPoint x="271" y="-3290" as="targetPoint" />
            <Array as="points">
              <mxPoint x="220" y="-3340" />
              <mxPoint x="285" y="-3340" />
            </Array>
          </mxGeometry>
        </mxCell>
        <mxCell id="abGJAD1XLBtD331P0YCd-30" style="edgeStyle=orthogonalEdgeStyle;rounded=0;orthogonalLoop=1;jettySize=auto;html=1;exitX=0.5;exitY=1;exitDx=0;exitDy=0;" edge="1" parent="WIyWlLk6GJQsqaUBKTNV-1" source="abGJAD1XLBtD331P0YCd-28" target="abGJAD1XLBtD331P0YCd-28">
          <mxGeometry relative="1" as="geometry" />
        </mxCell>
        <mxCell id="abGJAD1XLBtD331P0YCd-33" value="" style="endArrow=diamondThin;endFill=0;endSize=24;html=1;rounded=0;entryX=0.25;entryY=0;entryDx=0;entryDy=0;exitX=0;exitY=0.5;exitDx=0;exitDy=0;" edge="1" parent="WIyWlLk6GJQsqaUBKTNV-1" source="abGJAD1XLBtD331P0YCd-26" target="abGJAD1XLBtD331P0YCd-28">
          <mxGeometry width="160" relative="1" as="geometry">
            <mxPoint x="81" y="-3300" as="sourcePoint" />
            <mxPoint x="231" y="-3260" as="targetPoint" />
            <Array as="points">
              <mxPoint x="180" y="-3430" />
            </Array>
          </mxGeometry>
        </mxCell>
        <mxCell id="abGJAD1XLBtD331P0YCd-37" value="&lt;p style=&quot;margin: 0px ; margin-top: 4px ; text-align: center&quot;&gt;&lt;b&gt;&lt;br&gt;&lt;/b&gt;&lt;/p&gt;&lt;p style=&quot;margin: 0px ; margin-top: 4px ; text-align: center&quot;&gt;&lt;b&gt;CoreBankAccount&lt;/b&gt;&lt;/p&gt;" style="verticalAlign=top;align=left;overflow=fill;fontSize=12;fontFamily=Helvetica;html=1;" vertex="1" parent="WIyWlLk6GJQsqaUBKTNV-1">
          <mxGeometry x="340" y="-3300" width="160" height="60" as="geometry" />
        </mxCell>
        <mxCell id="abGJAD1XLBtD331P0YCd-38" value="" style="endArrow=block;dashed=1;endFill=0;endSize=12;html=1;rounded=0;exitX=0.5;exitY=0;exitDx=0;exitDy=0;" edge="1" parent="WIyWlLk6GJQsqaUBKTNV-1" source="abGJAD1XLBtD331P0YCd-37">
          <mxGeometry width="160" relative="1" as="geometry">
            <mxPoint x="230" y="-3290" as="sourcePoint" />
            <mxPoint x="345" y="-3379" as="targetPoint" />
            <Array as="points">
              <mxPoint x="420" y="-3340" />
              <mxPoint x="345" y="-3340" />
            </Array>
          </mxGeometry>
        </mxCell>
        <mxCell id="abGJAD1XLBtD331P0YCd-39" value="&lt;p style=&quot;margin: 0px ; margin-top: 4px ; text-align: center&quot;&gt;&lt;b&gt;&lt;br&gt;&lt;/b&gt;&lt;/p&gt;&lt;p style=&quot;margin: 0px ; margin-top: 4px ; text-align: center&quot;&gt;&lt;b&gt;FeeBankAccount&lt;/b&gt;&lt;/p&gt;" style="verticalAlign=top;align=left;overflow=fill;fontSize=12;fontFamily=Helvetica;html=1;" vertex="1" parent="WIyWlLk6GJQsqaUBKTNV-1">
          <mxGeometry x="40" y="-3160" width="160" height="60" as="geometry" />
        </mxCell>
        <mxCell id="abGJAD1XLBtD331P0YCd-40" value="&lt;p style=&quot;margin: 0px ; margin-top: 4px ; text-align: center&quot;&gt;&lt;b&gt;&lt;br&gt;&lt;/b&gt;&lt;/p&gt;&lt;p style=&quot;margin: 0px ; margin-top: 4px ; text-align: center&quot;&gt;&lt;b&gt;OverdraftBankAccount&lt;/b&gt;&lt;/p&gt;" style="verticalAlign=top;align=left;overflow=fill;fontSize=12;fontFamily=Helvetica;html=1;" vertex="1" parent="WIyWlLk6GJQsqaUBKTNV-1">
          <mxGeometry x="240.5" y="-3160" width="160" height="60" as="geometry" />
        </mxCell>
        <mxCell id="abGJAD1XLBtD331P0YCd-43" value="" style="endArrow=block;endFill=0;endSize=12;html=1;rounded=0;entryX=0.25;entryY=1;entryDx=0;entryDy=0;exitX=0.5;exitY=0;exitDx=0;exitDy=0;" edge="1" parent="WIyWlLk6GJQsqaUBKTNV-1" source="abGJAD1XLBtD331P0YCd-39" target="abGJAD1XLBtD331P0YCd-28">
          <mxGeometry width="160" relative="1" as="geometry">
            <mxPoint x="-130" y="-3110" as="sourcePoint" />
            <mxPoint x="30" y="-3110" as="targetPoint" />
            <Array as="points">
              <mxPoint x="120" y="-3200" />
              <mxPoint x="180" y="-3200" />
            </Array>
          </mxGeometry>
        </mxCell>
        <mxCell id="abGJAD1XLBtD331P0YCd-44" value="" style="endArrow=block;endFill=0;endSize=12;html=1;rounded=0;exitX=0.5;exitY=0;exitDx=0;exitDy=0;entryX=0.75;entryY=1;entryDx=0;entryDy=0;" edge="1" parent="WIyWlLk6GJQsqaUBKTNV-1" source="abGJAD1XLBtD331P0YCd-40" target="abGJAD1XLBtD331P0YCd-28">
          <mxGeometry width="160" relative="1" as="geometry">
            <mxPoint x="200" y="-3160" as="sourcePoint" />
            <mxPoint x="310" y="-3210" as="targetPoint" />
            <Array as="points">
              <mxPoint x="321" y="-3200" />
              <mxPoint x="260" y="-3200" />
            </Array>
          </mxGeometry>
        </mxCell>
        <mxCell id="abGJAD1XLBtD331P0YCd-45" value="&lt;p style=&quot;margin: 0px ; margin-top: 4px ; text-align: center&quot;&gt;&lt;b&gt;BankAccountFactory&lt;/b&gt;&lt;/p&gt;&lt;hr size=&quot;1&quot;&gt;&lt;p style=&quot;margin: 0px ; margin-left: 4px&quot;&gt;+ createBronzeBankAccount()&lt;/p&gt;&lt;p style=&quot;margin: 0px ; margin-left: 4px&quot;&gt;+ createSilverBankAccount()&lt;br&gt;&lt;/p&gt;&lt;p style=&quot;margin: 0px ; margin-left: 4px&quot;&gt;+ createGoldBankAccount()&lt;/p&gt;" style="verticalAlign=top;align=left;overflow=fill;fontSize=12;fontFamily=Helvetica;html=1;" vertex="1" parent="WIyWlLk6GJQsqaUBKTNV-1">
          <mxGeometry x="730" y="-3470" width="200" height="80" as="geometry" />
        </mxCell>
        <mxCell id="abGJAD1XLBtD331P0YCd-47" value="" style="endArrow=open;endFill=1;endSize=12;html=1;rounded=0;entryX=1;entryY=0.5;entryDx=0;entryDy=0;exitX=0;exitY=0.5;exitDx=0;exitDy=0;" edge="1" parent="WIyWlLk6GJQsqaUBKTNV-1" source="abGJAD1XLBtD331P0YCd-45" target="abGJAD1XLBtD331P0YCd-26">
          <mxGeometry width="160" relative="1" as="geometry">
            <mxPoint x="540" y="-3260" as="sourcePoint" />
            <mxPoint x="700" y="-3260" as="targetPoint" />
            <Array as="points" />
          </mxGeometry>
        </mxCell>
        <mxCell id="abGJAD1XLBtD331P0YCd-53" value="" style="endArrow=open;endFill=1;endSize=12;html=1;rounded=0;entryX=0.75;entryY=1;entryDx=0;entryDy=0;exitX=0;exitY=0.5;exitDx=0;exitDy=0;" edge="1" parent="WIyWlLk6GJQsqaUBKTNV-1" source="abGJAD1XLBtD331P0YCd-56" target="abGJAD1XLBtD331P0YCd-37">
          <mxGeometry width="160" relative="1" as="geometry">
            <mxPoint x="580" y="-3270" as="sourcePoint" />
            <mxPoint x="461" y="-3350" as="targetPoint" />
            <Array as="points">
              <mxPoint x="460" y="-3120" />
            </Array>
          </mxGeometry>
        </mxCell>
        <mxCell id="abGJAD1XLBtD331P0YCd-54" value="" style="endArrow=block;endFill=0;endSize=12;html=1;rounded=0;entryX=0.25;entryY=0;entryDx=0;entryDy=0;exitX=0.5;exitY=1;exitDx=0;exitDy=0;" edge="1" parent="WIyWlLk6GJQsqaUBKTNV-1" source="abGJAD1XLBtD331P0YCd-55" target="abGJAD1XLBtD331P0YCd-56">
          <mxGeometry width="160" relative="1" as="geometry">
            <mxPoint x="660" y="-3230" as="sourcePoint" />
            <mxPoint x="670" y="-3220" as="targetPoint" />
            <Array as="points">
              <mxPoint x="650" y="-3200" />
              <mxPoint x="780" y="-3200" />
            </Array>
          </mxGeometry>
        </mxCell>
        <mxCell id="abGJAD1XLBtD331P0YCd-55" value="&lt;p style=&quot;margin: 0px ; margin-top: 4px ; text-align: center&quot;&gt;&lt;b&gt;&lt;br&gt;&lt;/b&gt;&lt;/p&gt;&lt;p style=&quot;margin: 0px ; margin-top: 4px ; text-align: center&quot;&gt;&lt;b&gt;BronzeBankAccountTest&lt;/b&gt;&lt;/p&gt;" style="verticalAlign=top;align=left;overflow=fill;fontSize=12;fontFamily=Helvetica;html=1;" vertex="1" parent="WIyWlLk6GJQsqaUBKTNV-1">
          <mxGeometry x="570" y="-3300" width="160" height="60" as="geometry" />
        </mxCell>
        <mxCell id="abGJAD1XLBtD331P0YCd-56" value="&lt;p style=&quot;margin: 0px ; margin-top: 4px ; text-align: center&quot;&gt;&lt;b style=&quot;background-color: transparent; color: light-dark(rgb(0, 0, 0), rgb(255, 255, 255));&quot;&gt;CoreBankAccountTest&lt;/b&gt;&lt;/p&gt;&lt;hr size=&quot;1&quot;&gt;&lt;p style=&quot;margin: 0px ; margin-left: 4px&quot;&gt;+ init()&lt;/p&gt;&lt;p style=&quot;margin: 0px ; margin-left: 4px&quot;&gt;+ testInitiallyEmpty()&lt;br&gt;&lt;/p&gt;&lt;p style=&quot;margin: 0px ; margin-left: 4px&quot;&gt;...&lt;/p&gt;" style="verticalAlign=top;align=left;overflow=fill;fontSize=12;fontFamily=Helvetica;html=1;" vertex="1" parent="WIyWlLk6GJQsqaUBKTNV-1">
          <mxGeometry x="730" y="-3160" width="200" height="80" as="geometry" />
        </mxCell>
        <mxCell id="abGJAD1XLBtD331P0YCd-57" value="&lt;p style=&quot;margin: 0px ; margin-top: 4px ; text-align: center&quot;&gt;&lt;b&gt;&lt;br&gt;&lt;/b&gt;&lt;/p&gt;&lt;p style=&quot;margin: 0px ; margin-top: 4px ; text-align: center&quot;&gt;&lt;b&gt;SilverBankAccountTest&lt;/b&gt;&lt;/p&gt;" style="verticalAlign=top;align=left;overflow=fill;fontSize=12;fontFamily=Helvetica;html=1;" vertex="1" parent="WIyWlLk6GJQsqaUBKTNV-1">
          <mxGeometry x="750" y="-3300" width="160" height="60" as="geometry" />
        </mxCell>
        <mxCell id="abGJAD1XLBtD331P0YCd-59" value="&lt;p style=&quot;margin: 0px ; margin-top: 4px ; text-align: center&quot;&gt;&lt;b&gt;&lt;br&gt;&lt;/b&gt;&lt;/p&gt;&lt;p style=&quot;margin: 0px ; margin-top: 4px ; text-align: center&quot;&gt;&lt;b&gt;GoldBankAccountTest&lt;/b&gt;&lt;/p&gt;" style="verticalAlign=top;align=left;overflow=fill;fontSize=12;fontFamily=Helvetica;html=1;" vertex="1" parent="WIyWlLk6GJQsqaUBKTNV-1">
          <mxGeometry x="930" y="-3300" width="160" height="60" as="geometry" />
        </mxCell>
        <mxCell id="abGJAD1XLBtD331P0YCd-61" value="" style="endArrow=block;endFill=0;endSize=12;html=1;rounded=0;entryX=0.75;entryY=0;entryDx=0;entryDy=0;exitX=0.5;exitY=1;exitDx=0;exitDy=0;" edge="1" parent="WIyWlLk6GJQsqaUBKTNV-1" source="abGJAD1XLBtD331P0YCd-59" target="abGJAD1XLBtD331P0YCd-56">
          <mxGeometry width="160" relative="1" as="geometry">
            <mxPoint x="1010" y="-3220" as="sourcePoint" />
            <mxPoint x="880" y="-3140" as="targetPoint" />
            <Array as="points">
              <mxPoint x="1010" y="-3200" />
              <mxPoint x="880" y="-3200" />
            </Array>
          </mxGeometry>
        </mxCell>
        <mxCell id="abGJAD1XLBtD331P0YCd-62" value="" style="endArrow=open;endFill=1;endSize=12;html=1;rounded=0;exitX=0.5;exitY=0;exitDx=0;exitDy=0;entryX=0.25;entryY=1;entryDx=0;entryDy=0;" edge="1" parent="WIyWlLk6GJQsqaUBKTNV-1" source="abGJAD1XLBtD331P0YCd-55" target="abGJAD1XLBtD331P0YCd-45">
          <mxGeometry width="160" relative="1" as="geometry">
            <mxPoint x="559" y="-3350" as="sourcePoint" />
            <mxPoint x="590" y="-3390" as="targetPoint" />
            <Array as="points">
              <mxPoint x="650" y="-3340" />
              <mxPoint x="780" y="-3340" />
            </Array>
          </mxGeometry>
        </mxCell>
        <mxCell id="abGJAD1XLBtD331P0YCd-63" value="" style="endArrow=open;endFill=1;endSize=12;html=1;rounded=0;exitX=0.5;exitY=0;exitDx=0;exitDy=0;entryX=0.5;entryY=1;entryDx=0;entryDy=0;" edge="1" parent="WIyWlLk6GJQsqaUBKTNV-1" source="abGJAD1XLBtD331P0YCd-57" target="abGJAD1XLBtD331P0YCd-45">
          <mxGeometry width="160" relative="1" as="geometry">
            <mxPoint x="820" y="-3320" as="sourcePoint" />
            <mxPoint x="760" y="-3410" as="targetPoint" />
            <Array as="points" />
          </mxGeometry>
        </mxCell>
        <mxCell id="abGJAD1XLBtD331P0YCd-64" value="" style="endArrow=open;endFill=1;endSize=12;html=1;rounded=0;exitX=0.5;exitY=0;exitDx=0;exitDy=0;entryX=0.75;entryY=1;entryDx=0;entryDy=0;" edge="1" parent="WIyWlLk6GJQsqaUBKTNV-1" source="abGJAD1XLBtD331P0YCd-59" target="abGJAD1XLBtD331P0YCd-45">
          <mxGeometry width="160" relative="1" as="geometry">
            <mxPoint x="949" y="-3334" as="sourcePoint" />
            <mxPoint x="750" y="-3390" as="targetPoint" />
            <Array as="points">
              <mxPoint x="1010" y="-3340" />
              <mxPoint x="880" y="-3340" />
            </Array>
          </mxGeometry>
        </mxCell>
        <mxCell id="abGJAD1XLBtD331P0YCd-66" value="" style="endArrow=block;endFill=0;endSize=12;html=1;rounded=0;exitX=0.5;exitY=1;exitDx=0;exitDy=0;entryX=0.5;entryY=0;entryDx=0;entryDy=0;" edge="1" parent="WIyWlLk6GJQsqaUBKTNV-1" source="abGJAD1XLBtD331P0YCd-57" target="abGJAD1XLBtD331P0YCd-56">
          <mxGeometry width="160" relative="1" as="geometry">
            <mxPoint x="1020" y="-3150" as="sourcePoint" />
            <mxPoint x="1000" y="-3160" as="targetPoint" />
          </mxGeometry>
        </mxCell>
      </root>
    </mxGraphModel>
  </diagram>
</mxfile>
